<mxfile host="app.diagrams.net" modified="2023-02-08T18:23:36.856Z" agent="5.0 (Windows NT 10.0; Win64; x64) AppleWebKit/537.36 (KHTML, like Gecko) Chrome/109.0.0.0 Safari/537.36" etag="a8j23ES39Yf8hs7ET_sk" version="20.8.18" type="github">
  <diagram name="Page-1" id="tQhQnhtRksA9G2V0Z7nb">
    <mxGraphModel dx="2074" dy="1156" grid="1" gridSize="10" guides="1" tooltips="1" connect="1" arrows="1" fold="1" page="1" pageScale="1" pageWidth="850" pageHeight="1100" math="0" shadow="0">
      <root>
        <mxCell id="0" />
        <mxCell id="1" parent="0" />
        <mxCell id="l7NwMSeL5DbbEtBz-b9m-1" value="Begin" style="rounded=1;whiteSpace=wrap;html=1;fontSize=18;" vertex="1" parent="1">
          <mxGeometry x="328" y="10" width="195" height="50" as="geometry" />
        </mxCell>
        <mxCell id="l7NwMSeL5DbbEtBz-b9m-8" style="edgeStyle=orthogonalEdgeStyle;rounded=0;orthogonalLoop=1;jettySize=auto;html=1;exitX=1;exitY=0.5;exitDx=0;exitDy=0;fontSize=16;" edge="1" parent="1" source="l7NwMSeL5DbbEtBz-b9m-3" target="l7NwMSeL5DbbEtBz-b9m-5">
          <mxGeometry relative="1" as="geometry" />
        </mxCell>
        <mxCell id="l7NwMSeL5DbbEtBz-b9m-9" style="edgeStyle=orthogonalEdgeStyle;rounded=0;orthogonalLoop=1;jettySize=auto;html=1;exitX=0.5;exitY=1;exitDx=0;exitDy=0;entryX=0.5;entryY=0;entryDx=0;entryDy=0;fontSize=16;" edge="1" parent="1" source="l7NwMSeL5DbbEtBz-b9m-3" target="l7NwMSeL5DbbEtBz-b9m-6">
          <mxGeometry relative="1" as="geometry" />
        </mxCell>
        <mxCell id="l7NwMSeL5DbbEtBz-b9m-3" value="Does the client have the latest version?" style="rhombus;whiteSpace=wrap;html=1;fontSize=16;" vertex="1" parent="1">
          <mxGeometry x="325.5" y="150" width="200" height="200" as="geometry" />
        </mxCell>
        <mxCell id="l7NwMSeL5DbbEtBz-b9m-4" value="End" style="rounded=1;whiteSpace=wrap;html=1;fontSize=18;" vertex="1" parent="1">
          <mxGeometry x="328.5" y="740" width="195" height="50" as="geometry" />
        </mxCell>
        <mxCell id="l7NwMSeL5DbbEtBz-b9m-12" style="edgeStyle=orthogonalEdgeStyle;rounded=0;orthogonalLoop=1;jettySize=auto;html=1;exitX=0.5;exitY=1;exitDx=0;exitDy=0;entryX=1;entryY=0.5;entryDx=0;entryDy=0;fontSize=16;" edge="1" parent="1" source="l7NwMSeL5DbbEtBz-b9m-5" target="l7NwMSeL5DbbEtBz-b9m-6">
          <mxGeometry relative="1" as="geometry" />
        </mxCell>
        <mxCell id="l7NwMSeL5DbbEtBz-b9m-5" value="Customer should upgrade SC to the latest version" style="rounded=0;whiteSpace=wrap;html=1;fontSize=16;" vertex="1" parent="1">
          <mxGeometry x="620" y="390" width="195" height="90" as="geometry" />
        </mxCell>
        <mxCell id="l7NwMSeL5DbbEtBz-b9m-10" value="" style="edgeStyle=orthogonalEdgeStyle;rounded=0;orthogonalLoop=1;jettySize=auto;html=1;fontSize=16;" edge="1" parent="1" source="l7NwMSeL5DbbEtBz-b9m-6" target="l7NwMSeL5DbbEtBz-b9m-4">
          <mxGeometry relative="1" as="geometry" />
        </mxCell>
        <mxCell id="l7NwMSeL5DbbEtBz-b9m-6" value="Execute Migration Procedure" style="rounded=0;whiteSpace=wrap;html=1;fontSize=16;" vertex="1" parent="1">
          <mxGeometry x="328.5" y="550" width="195" height="90" as="geometry" />
        </mxCell>
        <mxCell id="l7NwMSeL5DbbEtBz-b9m-7" value="" style="endArrow=classic;html=1;rounded=0;fontSize=16;exitX=0.5;exitY=1;exitDx=0;exitDy=0;entryX=0.5;entryY=0;entryDx=0;entryDy=0;" edge="1" parent="1" source="l7NwMSeL5DbbEtBz-b9m-1" target="l7NwMSeL5DbbEtBz-b9m-3">
          <mxGeometry width="50" height="50" relative="1" as="geometry">
            <mxPoint x="400" y="350" as="sourcePoint" />
            <mxPoint x="450" y="300" as="targetPoint" />
          </mxGeometry>
        </mxCell>
      </root>
    </mxGraphModel>
  </diagram>
</mxfile>
